<svg width="42" height="40" viewBox="0 0 42 40" fill="none" xmlns="http://www.w3.org/2000/svg">
<path d="M20.7083 39.9694C31.7402 39.9694 40.7008 31.0242 40.7008 19.9923C40.7008 8.96048 31.7402 0 20.7083 0C9.67659 0 0.731445 8.96048 0.731445 19.9923C0.731445 31.0242 9.67659 39.9694 20.7083 39.9694ZM20.7083 37.1154C11.2416 37.1154 3.5853 29.4591 3.5853 19.9923C3.5853 10.5255 11.2416 2.86919 20.7083 2.86919C30.1752 2.86919 37.8316 10.5255 37.8316 19.9923C37.8316 29.4591 30.1752 37.1154 20.7083 37.1154Z" fill="#C8C8C8" fill-opacity="0.85"/>
<path d="M20.7085 29.8887C21.0615 29.8887 21.353 29.7814 21.6905 29.4437L28.2574 23.0609C28.503 22.8001 28.6563 22.5239 28.6563 22.171C28.6563 21.4807 28.1193 20.9743 27.429 20.9743C27.0913 20.9743 26.7384 21.1124 26.493 21.3886L23.2403 24.8101L21.9514 26.145L22.0588 23.2451V11.4001C22.0588 10.679 21.4451 10.0806 20.7085 10.0806C19.9875 10.0806 19.3736 10.679 19.3736 11.4001V23.2451L19.4657 26.1604L18.1769 24.8101L14.9088 21.3886C14.6787 21.1124 14.3104 20.9743 13.9729 20.9743C13.2671 20.9743 12.7607 21.4807 12.7607 22.171C12.7607 22.5239 12.8988 22.8001 13.1597 23.0609L19.7419 29.4437C20.0642 29.7814 20.371 29.8887 20.7085 29.8887Z" fill="#C8C8C8" fill-opacity="0.85"/>
</svg>
