<svg width="130" height="100" viewBox="0 0 130 100" fill="none" xmlns="http://www.w3.org/2000/svg">
<path d="M22.9325 23.358L22.7903 23.4016L22.6974 23.4578L21.9818 23.9792L21.0982 23.7713L20.1399 23.8297L19.1788 23.5524L18.9393 23.6298L18.8109 24.0173L18.6557 24.5946L18.0709 24.7538L17.7281 24.8263L17.4217 24.9999L16.8287 25.2793L16.2103 25.0117L15.9473 24.8645L15.6595 24.896L14.7107 24.8489L13.9598 24.2985L13.5714 24.0405L13.1205 24.1669L12.8393 24.2609L12.5599 24.2169L11.5156 24.0714L10.6377 24.6335L10.1596 24.8619L9.65318 24.8475L9.4214 24.5419L9.52969 24.1248L9.56718 23.9949L9.50252 23.8993L9.1695 23.7725L9.09767 23.4558L9.38445 22.9577L9.82977 22.5836L10.0657 22.4813L10.2795 22.3347L10.3892 21.8763L9.98007 21.6358L9.58766 21.4873L9.48868 21.1035L9.32697 20.7254L8.98204 20.7558L7.23351 21.217L5.43589 21.352L5.05067 21.4993L4.74233 21.7619L4.12813 22.4685L3.2988 22.9166L2.67739 22.858L2.68334 22.2527L2.78129 21.7085L2.72909 21.1667L2.67003 20.9318L2.71908 20.7329L3.37866 19.9224L4.10972 19.1786L4.25916 19.1182L4.4149 19.0653L4.70957 18.9019L4.79981 18.6257L4.57241 18.4831L4.27458 18.5422L3.77706 18.5958L3.48167 18.2595L3.63688 17.8133L4.09185 17.6319L4.62285 17.3861L4.94992 16.901L4.52634 16.8596L4.1325 16.9598L3.67473 16.9079L3.35362 16.6126L3.35046 16.1138L3.67229 15.7742L4.03334 15.4606L4.09555 15.0152L4.18191 14.7454L4.41332 14.5646L4.60883 14.27L4.4713 13.9526L4.21431 13.8579L4.02264 14.0698L3.96994 14.1245L3.92509 14.1481L3.23135 14.2109C2.06846 15.783 1.83159 14.5171 1.9882 13.3431L2.6851 12.5034L2.93668 12.3684L2.91286 12.1024L2.55755 11.8374L2.12977 11.9458L1.87436 12.2094L1.52063 12.1277L1.34738 11.7578L1.57829 11.421L1.67656 11.2289L1.53344 11.0578L1.35613 10.8297L1.27573 10.5512L1.38523 10.2967L1.27695 10.0786L0.900654 10.0505L0.544131 10.2404L0.364237 10.4457L0.134903 10.4896L0 10.2211L0.0555397 9.89628L0.10864 9.6616L0.223379 9.48454L0.481595 9.08824L0.281537 8.6706L0.263849 8.44669L0.392258 8.28227L1.11506 7.84729L1.7969 7.43175L1.63311 7.3438L1.4751 7.37556L1.24788 7.38664L1.10491 7.22087L1.1128 6.99745L1.2612 6.82664L1.40518 6.72363L1.5408 6.68616L2.63709 6.62286L3.66354 6.16221L3.53355 5.6844L4.00794 5.47607L4.59028 5.24072L4.88545 4.65348L5.13107 5.23312L5.56958 5.60114L6.18378 5.65335L6.80849 5.57997L7.65551 5.46517L8.43511 5.09385L8.94017 4.91121L9.19017 5.58015L9.67123 4.90929L10.3052 5.15768L10.8148 5.00157L11.2362 4.65887L11.1703 4.55999L11.0641 4.50433L10.8686 4.53814L10.6843 4.55271L10.355 4.49044L10.1074 4.30801L10.2238 4.08704L10.4271 3.87996L10.2353 3.80296L10.029 3.85844L9.90056 3.88412L9.79562 3.82377L9.74919 3.55201L9.88197 3.35445L9.98918 2.94498L10.286 2.71812L10.6097 2.68604L10.8607 2.51796L11.4868 2.12703L12.1599 1.81087L12.8295 1.34986L13.4849 0.818988L14.1145 0.567509L14.4791 1.11625L14.5833 1.27115L14.7576 1.23524L15.0948 1.03665L15.4326 0.83895L15.7299 0.543569L16.0458 0.483398L16.4406 0.791247L16.5254 1.32891L16.5457 1.53773L16.6361 1.80722L16.9289 1.39377L17.3833 1.18441L17.8421 1.34919L18.1834 1.67196L18.3878 1.82387L18.6206 1.95153L19.1603 2.33795L19.4707 2.88755L19.8342 3.55858L20.6008 3.68365L22.3781 3.62795L24.1445 3.71554L25.6966 3.95313L27.2511 4.04438L29.2421 3.98801L31.2284 4.07038L31.6686 4.02339L32.0624 3.79045L32.8543 3.32738C32.8543 3.32738 33.5389 3.92696 33.5498 3.93633C34.8446 5.06991 37.5577 4.97574 39.3287 5.64987C42.8745 6.99937 46.8554 7.19086 50.5221 6.21424C50.9751 6.09351 51.4091 6.41298 51.4735 6.87296C51.4755 6.88631 51.4774 6.89981 51.4798 6.91316C52.0925 6.16462 53.1287 5.78115 54.0872 5.94834C54.539 6.02727 54.8978 6.78813 54.4388 6.77996C55.8827 7.01585 57.2929 7.44997 58.6173 8.06599C59.1016 6.72587 61.037 6.66396 62.3618 7.21668C65.0232 8.32685 66.3799 8.82703 69.0732 8.00997L69.2628 7.78503L69.391 7.54033L69.8272 7.27706L70.2438 7.53565L70.5465 7.88963L70.7981 8.24707L71.275 8.78437L71.9718 8.94656L72.358 8.94013L72.66 8.7431L73.1302 8.42502L73.7118 8.48001L74.038 8.88237L74.0128 9.37546L73.9318 10.1098L73.6113 10.7857L73.4974 11.1825L73.7482 11.5127L74.0828 11.532L74.2402 11.2326L74.3621 11.0798L74.4854 10.9277L74.6322 10.7553L74.8495 10.7446L75.0345 10.9199L75.0219 11.1762L75.0513 11.7708L75.6045 11.999L76.8102 12.2852L77.9692 12.7229L78.5179 12.78L79.0508 12.6281L79.8146 12.5792L80.2095 13.2184L80.4057 13.6208L80.7144 13.9528L81.9389 14.5723L83.2676 14.7265L83.9252 14.6262L84.6253 14.6387L85.4648 15.0131L86.0306 15.6554L86.6609 16.2163L87.4532 15.9795L88.081 15.7078L88.7246 15.4657L89.0698 15.4427L89.3382 15.5862L89.8578 15.9115L90.3034 15.5064L90.4373 15.4242L90.5886 15.4915L91.1895 15.7815L91.8511 15.6885L92.3065 15.6542L92.7655 15.6564L93.1278 15.5709L93.1299 15.1994L92.9165 14.5171L93.1481 13.9363L93.8794 13.7582L94.6565 13.9697L95.6638 14.3489L96.7293 14.4791L97.1441 14.5306L97.4486 14.731L98.136 15.197L98.9395 15.0808L99.7499 15.1717L100.261 15.753L100.562 16.5054L100.608 17.3505L100.713 17.9916L101.19 18.5152L101.719 18.5583L102.187 18.2694L103.379 17.9432L104.552 18.2533L105.039 18.2831L105.426 18.0578L105.731 17.8988L106.011 17.938L105.995 18.2115L105.717 18.3761L105.619 18.8022L105.883 19.144L106.304 19.416L106.779 19.2089L107.08 18.8653L107.476 18.5731L108.862 18.4156L110.041 19.0265L111.053 19.3672L112.075 19.3719L112.246 19.3029L112.365 19.1539L113.097 18.242L114.164 17.7723L115.161 17.4234L116.215 17.8167L116.56 17.8906L116.982 17.8745L117.089 18.6728L117.925 19.0452L118.374 19.2698L118.399 19.7641L118.044 20.2617L117.447 20.2573L117.031 20.077L116.631 20.2183L116.498 20.6994L116.73 21.1637L117.11 21.7175L117.579 22.2163L117.999 23.5221L117.521 24.7961L116.62 25.7523L115.693 26.6668L115.336 26.9316L114.945 27.1686L114.383 27.471L113.95 27.9598L113.706 28.2543L113.341 28.4211L111.549 29.1867L109.93 30.267L108.857 31.1409L108.149 32.3378L107.584 32.986L106.739 33.282L104.379 33.9281L102.048 34.6716L100.812 35.037L99.6861 35.5925L98.7727 36.0779L97.8042 36.3619L96.7384 36.9235L95.9203 37.805L95.3849 38.5369L94.8261 39.2581L94.6435 39.7161L95.091 39.9709L95.4035 40.0559L95.5832 40.3096L95.6954 40.464L95.8509 40.5753L96.1326 40.5498L96.3075 40.6921L96.1729 41.0556L95.832 41.2561L94.9379 41.6036L93.9988 41.8383L93.6274 41.9462L93.3426 42.2921L92.5767 43.8698L91.6934 45.3667L90.9678 46.6059L89.9986 47.6718L89.6454 48.0223L89.4744 48.4729L89.142 49.2443L88.5011 49.7754L88.3319 49.8881L88.2163 50.0328L87.2317 51.6202L86.2626 53.2144L86.2489 53.2444L86.238 53.2746L85.6032 54.8628L84.7924 56.3717L84.661 56.9763L84.7556 57.5729L85.1491 58.6655L85.5941 59.736L85.8172 60.5834L85.9749 61.4357L86.9412 63.0614L88.547 64.0642L89.595 64.6747L90.4064 65.5624L90.4176 65.7979L90.2306 65.9925L89.5866 66.4493L89.2211 67.1646L89.0617 67.3099L88.779 67.2645L88.0817 67.279L87.8309 67.9204L87.6581 68.2999L87.2822 68.4709L86.3235 68.7963L85.3586 69.1036L84.8152 69.3873L84.5251 69.8573L84.2339 70.5046L83.6368 70.8605L83.0836 71.3843L83.132 72.1332L83.1117 72.5435L82.8352 72.7509L81.9523 73.4991L81.7971 74.614L81.6919 75.2366L81.357 75.7753L81.0914 76.1222L80.9821 76.5776L80.946 77.2044L80.4569 77.6973L80.1475 78.1278L79.9958 78.7702L80.2694 79.2281L80.7918 79.5729L81.1625 79.6991L81.3559 80.011L81.0981 80.3218L80.6808 80.3891L79.9888 80.5466L79.3139 80.7914L78.9776 80.8487L78.6493 80.6697L78.4432 80.5146L78.1882 80.4543L75.9559 80.679L73.8719 81.5011L73.7798 81.5497L73.7121 81.6097L72.585 82.6642L71.3801 83.5248L70.3507 84.4932L69.9131 85.8537L69.8657 86.2207L69.6205 86.5512L69.3318 86.9467L69.2049 87.408L69.0196 88.2637L68.3367 88.8212L68.2425 88.9016L68.1927 89.0262L67.7232 89.9676L66.978 90.7144L66.3354 91.1584L65.6563 90.704L65.2667 90.2295L64.7723 89.8587L64.2461 89.687L63.7205 89.8181L63.4728 89.8909L63.2286 89.8385L62.1964 89.8358L61.5041 90.6402L60.8051 91.4498L59.9733 91.6117L59.3268 91.406L58.7301 91.1067L58.282 90.9086L57.8129 90.8642L56.7284 90.8715L55.6444 90.8608L54.5396 90.9003L53.4745 91.209L52.3586 91.3145L51.2964 90.9326L51.0715 90.7938L50.8299 90.7411L49.592 90.7567L48.3918 90.6488L46.9032 90.6454L45.4322 90.8601L44.369 90.9745L43.297 90.8583L42.8722 90.9229L42.5297 91.2153L41.4987 92.301L40.3391 93.2566L39.5589 93.5188L38.7097 93.3423L38.2469 93.1924L37.8231 93.2309L36.1529 93.8341L34.4909 94.4433L34.4019 94.4963L34.3402 94.5643L33.5274 95.7038L32.6908 96.8256L32.4759 97.1544L32.0539 97.1773L31.5803 97.2446L31.4603 97.7011L31.5684 98.3827L31.245 98.9266L30.3482 99.1305L29.4733 98.8874L28.6198 98.4836L27.7907 98.0406L27.4652 97.8253L27.1838 97.5568L26.5525 96.9567L25.7112 96.7243L25.4379 96.6733L25.2618 96.5068L24.4055 95.0784L23.515 93.6739L23.3092 93.1966L23.117 92.7144L23.0067 92.1477L23.5492 91.8941L23.8018 91.7786L23.6682 91.5198L23.1825 91.1556L22.5801 90.9898L21.865 90.7335L21.5312 89.7296L21.7362 89.2155L22.266 89.0175L22.4471 88.9485L22.6226 88.8867L21.4168 87.2529L20.0392 85.7559L19.2142 85.1235L18.3185 84.5925L17.5406 84.1842L16.778 83.7398L15.9499 83.3156L15.0044 83.1713L13.8188 83.1575L12.6387 83.0163L12.2931 83.2435L11.9679 83.1762L11.6549 82.4037L11.6064 81.5573L11.6608 80.1879L11.1621 78.9114L11.1072 78.6915L11.2083 78.4969L11.6442 77.7896L11.9091 76.9994L12.3409 76.2592L13.028 75.7365L13.888 74.6983L14.3177 73.4454L14.5574 73.0579L14.9565 73.0885L15.3107 73.1443L15.5808 72.8758L15.8979 72.7086L16.2602 72.8616L16.8749 72.9438L17.2269 72.4776L17.3108 72.2466L17.5075 72.0967L17.73 71.8831L17.7272 71.5577L17.4937 70.8712L16.7796 71.0225L16.2281 71.0811L15.8629 70.6881L15.1521 69.0925L14.227 67.6141L14.1569 66.9773L14.4209 66.4046L14.739 65.7334L14.7965 64.9588L14.9577 64.4104L15.4499 63.9845L16.283 63.307L17.1953 62.7423L17.3344 62.6337L17.3313 62.4929L17.2714 61.6861L17.8123 61.095L18.1238 60.5504L18.0184 59.9268L17.6498 59.557L17.1545 59.5227L16.6493 59.5403L16.4439 59.0912L16.3308 58.8244L16.0875 58.6659L15.7196 58.3454L15.5857 57.892L15.4524 57.1442L14.9946 56.5253L14.8365 56.1729L14.9314 55.7914L14.988 55.2874L14.5912 55.0005L14.2874 54.7851L14.2779 54.4027L14.2473 54.052L14.0062 53.789L13.5974 53.2431L13.2789 52.6485L13.2091 52.5028L13.2507 52.3544L13.4064 52.2609L13.598 52.3001L14.6259 52.5336L15.6936 52.4281L16.3889 52.4191L17.1065 52.5462L18.1322 52.4729L18.5613 51.5578L18.7349 51.0807L18.9954 50.637L19.682 49.2081L19.58 47.617L19.3943 47.259L19.0625 47.001L18.7375 46.555L18.6573 45.9867L18.7645 45.6537L19.1145 45.4379L19.3246 45.3394L19.5432 45.2813L20.1648 45.0403L20.6318 44.537L20.8925 43.8749L20.811 43.2062L20.7784 42.702L21.0516 42.2557L21.3057 41.8929L21.1644 41.4689L21.0351 41.2207L21.0565 40.9827L21.2374 40.0894L21.0745 39.1958L21.015 38.5957L21.238 38.0109L21.2767 37.8232L21.1795 37.6531L20.7848 36.7382L20.4009 35.8149L20.3445 35.5611L20.6353 35.4808L21.5687 35.3944L21.9624 34.5108L22.2272 34.2196L22.5177 34.0102L23.4493 33.1941L24.6224 32.7974L24.9386 32.6363L25.2201 32.4112L25.745 31.8427L26.3694 31.3685L26.5652 31.1767L26.6828 30.8928L26.9972 30.1876L27.5119 29.6125L27.7598 29.1534L27.547 28.6471L26.581 27.8644L25.3291 27.8316L24.5939 27.4946L24.6072 26.5225L24.7976 25.4337L24.7165 24.3721L24.624 24.157L24.357 24.1612L24.0694 24.2156L23.7771 24.2375L22.987 24.1413L22.9325 23.358Z" fill="white"/>
<g clip-path="url(#clip0_1169_4209)">
<path d="M110.797 68.5735C110.752 68.5366 110.659 68.5038 110.707 68.4272C110.747 68.3646 110.829 68.3783 110.895 68.4124C110.891 68.3751 110.9 68.34 110.886 68.3069C110.913 68.1969 111.017 68.148 111.079 68.065C111.198 67.9247 111.307 67.7749 111.441 67.648C111.485 67.6068 111.527 67.5632 111.586 67.5439C111.656 67.5277 111.714 67.476 111.789 67.4715C111.899 67.508 111.977 67.444 112.045 67.3779C112.119 67.3058 112.202 67.2696 112.307 67.2538C112.274 67.2232 112.23 67.2049 112.226 67.1571C112.241 67.0706 112.309 67.0354 112.377 66.9996C112.518 66.983 112.582 66.8631 112.672 66.777C112.69 66.7728 112.667 66.771 112.685 66.7721C112.965 66.7907 113.205 66.6743 113.441 66.546C113.45 66.5446 113.459 66.5425 113.468 66.5439C113.586 66.5617 113.66 66.5127 113.69 66.3969C113.701 66.3899 113.713 66.3853 113.726 66.3835C113.88 66.3976 114.005 66.355 114.086 66.2112C114.116 66.1592 114.174 66.1307 114.216 66.0878C114.305 66.0298 114.412 66.04 114.508 66.0111C114.553 66.001 114.598 66.0013 114.644 65.9999C114.847 65.9851 115.05 65.9683 115.245 65.9028C115.357 65.8768 115.468 65.8508 115.579 65.8202C115.677 65.7931 115.769 65.7492 115.863 65.7108C115.933 65.6897 115.998 65.656 116.064 65.625C116.134 65.6071 116.195 65.5565 116.272 65.5695C116.288 65.5793 116.269 65.5642 116.285 65.5744C116.302 65.586 116.317 65.6008 116.337 65.6078C116.323 65.5941 116.302 65.5836 116.31 65.5575C116.33 65.5199 116.365 65.5016 116.403 65.4865C116.428 65.4777 116.455 65.4763 116.482 65.4791C116.575 65.5371 116.65 65.4373 116.737 65.4489C116.732 65.4296 116.704 65.4306 116.701 65.4088C116.702 65.3849 116.716 65.3754 116.738 65.3757C116.814 65.3448 116.857 65.3789 116.883 65.4478C116.845 65.5547 116.897 65.6328 116.965 65.7059C116.92 65.7794 116.834 65.7935 116.769 65.8364C116.691 65.8726 116.609 65.8951 116.529 65.9247C116.437 65.9573 116.362 66.0129 116.309 66.0962C116.29 66.1223 116.269 66.1454 116.246 66.1683C116.218 66.195 116.189 66.2197 116.155 66.2376C116.108 66.2629 116.059 66.2622 116.011 66.2425C115.964 66.2235 115.931 66.2348 115.919 66.2868C115.91 66.309 115.909 66.3322 115.908 66.355C115.9 66.5398 115.987 66.6462 116.168 66.6743C116.281 66.7063 116.383 66.6655 116.486 66.629C116.547 66.6107 116.607 66.5892 116.671 66.5917L116.931 66.6856C116.941 66.6286 116.967 66.5829 117.031 66.6448C117.059 66.7091 117.014 66.7763 117.039 66.8406C117.041 66.8603 117.04 66.8804 117.035 66.8997C117.02 66.9426 116.999 66.9827 116.976 67.0224C116.959 67.0495 116.937 67.0727 116.913 67.0942C116.867 67.1311 116.814 67.1539 116.763 67.1817C116.728 67.1989 116.691 67.2148 116.651 67.2134C116.624 67.2098 116.6 67.2021 116.589 67.1736L116.548 67.2112C116.54 67.238 116.521 67.2527 116.497 67.2636C116.468 67.2742 116.437 67.2791 116.408 67.29C116.396 67.2949 116.385 67.2988 116.373 67.303C116.31 67.3266 116.272 67.3737 116.252 67.4367C116.201 67.6771 116.284 67.8836 116.412 68.0787C116.477 68.1635 116.552 68.2394 116.636 68.3045C116.672 68.327 116.71 68.3463 116.745 68.3709C116.774 68.3924 116.807 68.4085 116.84 68.424C116.863 68.4349 116.886 68.4462 116.909 68.4588C117.034 68.5358 117.174 68.5625 117.317 68.5777C117.385 68.5794 117.453 68.5752 117.521 68.577C117.592 68.5777 117.662 68.5773 117.733 68.5773C117.881 68.5671 118.032 68.6051 118.177 68.5492C118.25 68.5186 118.312 68.4718 118.363 68.4117C118.425 68.3393 118.503 68.2802 118.556 68.1993C118.572 68.1772 118.591 68.1575 118.616 68.1441C118.728 68.0931 118.84 68.0453 118.95 68.149L119.029 68.1659C119.133 68.1645 119.21 68.2296 119.294 68.2777C119.462 68.3741 119.609 68.5098 119.805 68.5559C119.819 68.5583 119.831 68.5619 119.845 68.5657C119.905 68.5872 119.967 68.577 120.028 68.5812C120.057 68.5833 120.084 68.5886 120.108 68.6058C120.124 68.6213 120.13 68.6396 120.127 68.6614C120.059 68.7451 120.054 68.8368 120.095 68.9339C120.1 68.9458 120.102 68.9582 120.102 68.9712C120.03 69.0728 120 69.1839 120.029 69.308C120.058 69.4504 120.122 69.5932 120.03 69.7359C119.972 69.8833 119.924 70.0359 119.829 70.1663C119.771 70.2346 119.697 70.281 119.616 70.3158C119.563 70.3379 119.504 70.3446 119.46 70.3847C119.325 70.5222 119.302 70.6843 119.357 70.8626C119.378 70.9318 119.394 70.9987 119.333 71.057C119.32 71.0718 119.306 71.0855 119.292 71.0989C119.193 71.1952 119.097 71.2951 118.99 71.3826C118.913 71.4294 118.878 71.5169 118.81 71.5718C118.799 71.5788 118.788 71.5841 118.775 71.5883C118.726 71.5996 118.697 71.588 118.709 71.5307C118.658 71.6228 118.601 71.7142 118.6 71.8264C118.401 72.1038 118.27 72.4171 118.127 72.7244C118.109 72.8398 118.089 72.9544 118.079 73.0708C118.05 73.2086 118.038 73.3489 118.019 73.4882C118.014 73.5015 118.007 73.5135 117.998 73.524C117.84 73.4794 117.801 73.5782 117.774 73.703C117.758 73.7751 117.728 73.844 117.713 73.9172C117.694 73.9755 117.689 74.0385 117.649 74.0888C117.621 74.1208 117.59 74.1493 117.544 74.1507L117.404 74.3373C117.389 74.3697 117.367 74.3943 117.331 74.4021C117.287 74.408 117.261 74.3584 117.216 74.3644C117.212 74.3989 117.264 74.4235 117.232 74.4618C117.224 74.472 117.214 74.4784 117.201 74.4822C117.154 74.4731 117.119 74.4773 117.138 74.5409C117.091 74.6348 116.982 74.657 116.915 74.7206C116.804 74.8254 116.682 74.9168 116.539 74.9717C116.452 75.0055 116.368 75.0466 116.299 75.1078C116.217 75.164 116.143 75.2298 116.071 75.298C115.964 75.388 115.851 75.4728 115.78 75.5979C115.76 75.6314 115.741 75.6655 115.71 75.6911C115.647 75.7347 115.591 75.7931 115.509 75.8015C115.481 75.8022 115.458 75.7906 115.436 75.7741C115.363 75.7006 115.314 75.6095 115.257 75.5237C115.219 75.4499 115.173 75.3817 115.12 75.3177C115.072 75.26 115.008 75.2245 114.942 75.1929C114.832 75.1408 114.755 75.0631 114.729 74.9411C114.714 74.881 114.696 74.8215 114.69 74.7597C114.685 74.7133 114.682 74.657 114.639 74.6366C114.505 74.574 114.398 74.4678 114.262 74.4116C114.174 74.3753 114.091 74.4175 114.009 74.4485C113.898 74.4928 113.782 74.4794 113.667 74.4822C113.644 74.4822 113.605 74.4826 113.581 74.4829C113.452 74.4763 113.325 74.4446 113.194 74.4544C113.047 74.4383 112.898 74.439 112.754 74.3943C112.683 74.3567 112.599 74.343 112.541 74.2814C112.525 74.1594 112.588 74.0469 112.584 73.9256L112.484 73.7403C112.438 73.7572 112.41 73.715 112.385 73.683C112.347 73.6359 112.3 73.5961 112.269 73.5455C112.213 73.4541 112.134 73.3989 112.032 73.3728C111.989 73.2916 111.986 73.1991 111.962 73.1126C111.955 73.0536 111.924 73.0121 111.874 72.9811C111.835 72.9565 111.798 72.9287 111.803 72.8739C111.816 72.8141 111.81 72.7515 111.825 72.6921C111.842 72.6425 111.866 72.595 111.883 72.5451C111.9 72.5047 111.921 72.4653 111.94 72.4252C111.951 72.4023 111.961 72.3798 111.969 72.3559C111.99 72.2114 111.921 72.0999 111.834 71.9969C111.798 71.9551 111.756 71.9192 111.717 71.8809C111.529 71.678 111.296 71.5507 111.039 71.4603C110.924 71.4199 110.821 71.4505 110.717 71.4948C110.607 71.5426 110.5 71.5971 110.395 71.6569C110.381 71.6681 110.365 71.6794 110.351 71.6906C110.306 71.7248 110.255 71.7473 110.207 71.774C110.137 71.8088 110.065 71.8397 109.999 71.883C109.966 71.9076 109.937 71.9379 109.91 71.9684C109.866 72.018 109.83 72.0718 109.809 72.1351C109.788 72.1942 109.77 72.2536 109.751 72.313C109.74 72.3436 109.733 72.3753 109.725 72.4066C109.712 72.4456 109.694 72.4811 109.654 72.499C109.614 72.5061 109.566 72.5026 109.535 72.5135C109.5 72.5258 109.549 72.4038 109.502 72.4955C109.487 72.5261 109.452 72.5374 109.42 72.5433C109.309 72.5634 109.26 72.6115 109.334 72.722C109.348 72.7434 109.347 72.7656 109.324 72.7832C109.242 72.8282 109.157 72.8412 109.067 72.8092C109.011 72.7666 108.987 72.7075 108.981 72.639C108.988 72.5553 109.006 72.4751 108.963 72.389C108.94 72.3436 108.957 72.2729 108.974 72.2139C108.996 72.1407 108.988 72.0669 108.945 72.0032C108.936 71.9899 108.938 72.0243 108.925 72.0293C108.915 72.0377 108.904 72.0416 108.892 72.0409C108.858 72.0173 108.831 71.9839 108.792 71.9674C108.776 71.9565 108.765 71.9417 108.759 71.9231C108.756 71.8844 108.747 71.8506 108.696 71.8598C108.642 71.8549 108.612 71.8953 108.576 71.9248C108.566 71.9319 108.554 71.9361 108.541 71.9382C108.481 71.9108 108.422 71.8805 108.355 71.8703C108.314 71.8506 108.278 71.8672 108.241 71.8851C108.223 71.8904 108.205 71.8921 108.186 71.8911C108.074 71.8587 107.979 71.8953 107.893 71.9653C107.872 71.9667 107.854 71.9607 107.837 71.9491C107.827 71.9407 107.819 71.9308 107.812 71.9196C107.792 71.8717 107.774 71.8229 107.751 71.7761C107.726 71.6527 107.613 71.6034 107.537 71.5222C107.421 71.3281 107.463 71.1147 107.461 70.9065C107.477 70.8341 107.499 70.7634 107.529 70.6956C107.544 70.6699 107.565 70.6526 107.593 70.6428C107.628 70.6326 107.665 70.6291 107.699 70.6294C107.823 70.6305 107.887 70.5735 107.895 70.4508C107.917 70.4142 107.951 70.3956 107.992 70.3868C108.107 70.4142 108.185 70.3291 108.278 70.2898C108.335 70.2655 108.27 70.2261 108.292 70.1987C108.337 70.1224 108.418 70.1171 108.491 70.0978C108.518 70.0946 108.546 70.0956 108.573 70.1016C108.695 70.1593 108.741 70.0584 108.803 69.9895C108.814 69.9824 108.827 69.9775 108.84 69.9765C108.94 69.9668 108.979 69.9147 108.957 69.82C108.963 69.7764 108.988 69.7468 109.027 69.7282C109.05 69.7233 109.072 69.7307 109.095 69.7373C109.18 69.7641 109.219 69.7345 109.207 69.6427C109.203 69.6058 109.202 69.5682 109.206 69.531C109.228 69.4283 109.305 69.3724 109.385 69.3182C109.455 69.2729 109.527 69.2317 109.613 69.225C109.8 69.2117 109.958 69.1255 110.108 69.0214C110.156 69.0264 110.188 69.0932 110.246 69.0534L110.26 69.065C110.249 69.0186 110.176 69.0105 110.188 68.949C110.204 68.9029 110.228 68.865 110.279 68.8527C110.357 68.8853 110.392 68.8091 110.447 68.7862C110.545 68.7461 110.422 68.6863 110.46 68.6406C110.473 68.578 110.506 68.5281 110.555 68.4877C110.624 68.442 110.663 68.4975 110.712 68.5313L110.797 68.5735Z" fill="white"/>
<path d="M98.9237 84.7258C98.9198 84.7426 98.9159 84.7599 98.9118 84.7771C98.8739 84.8523 98.7993 84.8731 98.7288 84.8991C98.6427 84.9617 98.56 84.9262 98.4773 84.8907C98.445 84.8453 98.3974 84.8509 98.3508 84.8517C98.3385 84.8499 98.327 84.8453 98.3165 84.8383C98.2755 84.7356 98.1931 84.7258 98.0996 84.7416C98.0873 84.7352 98.0807 84.7251 98.0789 84.7113C98.0922 84.6674 98.1486 84.6568 98.1532 84.6009C98.0225 84.6312 97.8914 84.6002 97.7597 84.5795C97.628 84.5387 97.498 84.4849 97.3554 84.5222C97.3221 84.5194 97.2944 84.5011 97.2611 84.4845C97.2429 84.5158 97.2741 84.5461 97.2597 84.5742C97.1998 84.6713 97.0912 84.6808 96.999 84.7201C96.8698 84.7029 96.7797 84.6224 96.6988 84.5289C96.7086 84.4269 96.7065 84.3238 96.7583 84.2289C96.8214 84.1143 96.8218 84.0088 96.6855 83.942C96.668 83.8854 96.6718 83.8326 96.717 83.789C96.7878 83.705 96.9069 83.7757 96.9819 83.705C97.012 83.6835 97.0373 83.6572 97.0576 83.6262C97.0712 83.6058 97.0835 83.5847 97.0947 83.5629C97.1206 83.5197 97.1434 83.4729 97.1956 83.4543C97.2093 83.4536 97.2191 83.4599 97.2258 83.4718C97.2342 83.4877 97.2275 83.5095 97.2363 83.5211C97.2464 83.5345 97.2314 83.5376 97.2345 83.5253C97.2401 83.5014 97.2324 83.4743 97.2142 83.4532C97.2878 83.3871 97.3123 83.4406 97.3165 83.5028C97.3203 83.5556 97.3284 83.5998 97.3736 83.6305C97.334 83.5991 97.3046 83.5605 97.3249 83.5084C97.3393 83.4722 97.3705 83.4909 97.3953 83.5025C97.5207 83.6399 97.6413 83.7813 97.7159 83.9553C97.7177 83.9641 97.7191 83.9733 97.7177 83.9821C97.7117 84.0193 97.6886 84.0643 97.758 84.0637C97.7527 84.1234 97.834 84.2096 97.7075 84.2321C97.6945 84.2187 97.7103 84.2367 97.697 84.224C97.6879 84.2148 97.6844 84.2015 97.6718 84.1962C97.6816 84.2047 97.6882 84.2162 97.6984 84.225C97.7832 84.2532 97.8704 84.2289 97.9559 84.2412C98.0484 84.3108 98.1528 84.326 98.266 84.3238C98.3886 84.3214 98.5123 84.3108 98.6342 84.3351C98.6486 84.3418 98.6612 84.3509 98.6721 84.3625C98.7012 84.3745 98.7292 84.3938 98.7593 84.3977C98.8886 84.4142 98.9513 84.4793 98.9261 84.6139C98.9419 84.6516 98.9482 84.6888 98.9237 84.7258Z" fill="white"/>
<path d="M124.135 64.8001C124.299 64.7801 124.077 64.6823 124.165 64.6472C124.087 64.6208 124.143 64.5782 124.153 64.5413C124.161 64.5065 124.186 64.4492 124.175 64.4411C124.139 64.4147 124.09 64.414 124.048 64.4425C124.047 64.4144 124.046 64.3863 124.045 64.3581C124.056 64.3215 124.067 64.2853 124.078 64.2487C124.087 64.2385 124.096 64.2287 124.106 64.2189C124.159 64.1805 124.189 64.2276 124.225 64.2519C124.26 64.2748 124.287 64.3461 124.336 64.298C124.381 64.2533 124.316 64.2189 124.295 64.1812C124.278 64.1489 124.253 64.1194 124.273 64.0789C124.338 64.0589 124.403 64.0388 124.467 64.0188C124.608 63.9207 124.781 63.9351 124.936 63.8824C124.997 63.8735 125.053 63.8954 125.11 63.9137C125.22 63.9755 125.335 64.0065 125.46 63.9611C125.568 63.9579 125.674 63.9354 125.782 63.927C126.117 63.8887 126.452 63.8504 126.791 63.8788C126.895 63.8876 126.987 63.8293 127.084 63.8008C127.235 63.8149 127.334 63.927 127.449 64.0047C127.562 64.081 127.671 64.17 127.739 64.2952C127.774 64.3662 127.835 64.3806 127.906 64.3743C128.359 64.7259 128.834 65.0494 129.249 65.4485C129.271 65.522 129.217 65.5308 129.167 65.5452C129.237 65.6303 129.329 65.6117 129.419 65.6025C129.484 65.6095 129.546 65.6257 129.593 65.6764C129.641 65.7762 129.663 65.8824 129.66 65.9935C129.654 66.0104 129.644 66.0245 129.632 66.0385C129.619 66.0533 129.59 66.0196 129.605 66.0389C129.699 66.1637 129.591 66.2935 129.621 66.4204C129.634 66.4756 129.623 66.5382 129.646 66.5948C129.65 66.79 129.638 66.9848 129.644 67.1796C129.647 67.2197 129.645 67.2597 129.645 67.2998C129.646 67.4067 129.618 67.4946 129.5 67.5249C129.379 67.5407 129.258 67.559 129.138 67.578C129.046 67.5956 128.958 67.5892 128.881 67.5273C128.865 67.5136 128.852 67.4975 128.842 67.4785C128.811 67.3336 128.668 67.3677 128.579 67.3164C128.55 67.2995 128.507 67.3069 128.473 67.2896C128.461 67.2822 128.455 67.2717 128.453 67.258C128.489 67.2095 128.54 67.182 128.563 67.1718C128.464 67.2816 128.335 67.123 128.206 67.1571C128.082 67.1363 128.001 67.0382 127.896 66.9844C127.803 66.9151 127.704 66.8547 127.604 66.7938C127.529 66.7221 127.439 66.6718 127.353 66.6156C127.032 66.3933 126.709 66.1743 126.381 65.9622C126.311 65.9165 126.233 65.8849 126.152 65.8627C126.031 65.8061 125.904 65.7875 125.772 65.798C125.669 65.8058 125.563 65.7847 125.46 65.8107C125.413 65.824 125.362 65.8212 125.315 65.8374C125.229 65.8659 125.143 65.8972 125.05 65.8965C125.005 65.906 124.958 65.9081 124.914 65.9232C124.867 65.9338 124.82 65.938 124.773 65.9443C124.679 65.945 124.598 65.9018 124.513 65.8736C124.443 65.8339 124.339 65.8508 124.305 65.7495C124.314 65.708 124.323 65.6665 124.332 65.6254C124.31 65.4682 124.309 65.3128 124.377 65.1644C124.486 65.0132 124.485 65.0121 124.279 64.9422C124.224 64.9021 124.12 64.9112 124.135 64.8001Z" fill="white"/>
<path d="M94.9862 81.5387C94.9694 81.5335 94.9526 81.5282 94.9361 81.5229C94.8678 81.504 94.8538 81.4442 94.8359 81.3879C94.8363 81.3696 94.8345 81.3513 94.8492 81.3362C94.858 81.3271 94.8801 81.3387 94.8755 81.3313C94.8566 81.2986 94.7935 81.0873 94.789 81.0222L94.7883 81.0226C94.7774 80.9867 94.8485 81.069 94.8166 81.0025C94.8065 80.9818 94.8058 80.961 94.8198 80.941L94.8194 80.9417C94.8608 80.9477 94.9042 80.8851 94.9421 80.9322C94.9312 80.8633 94.8888 80.7905 94.8709 80.7096C94.859 80.634 94.9004 80.5668 94.9053 80.4937C94.893 80.4199 94.7862 80.3583 94.8773 80.2715C94.8857 80.2613 94.8962 80.2543 94.9085 80.25C95.0062 80.255 95.1001 80.2124 95.2024 80.2377C95.2399 80.2472 95.3156 80.2454 95.3419 80.1783C95.3664 80.1446 95.4007 80.1245 95.4382 80.109C95.4515 80.1041 95.4648 80.101 95.4785 80.0988C95.5198 80.0932 95.5612 80.0939 95.6022 80.0929C95.681 80.1013 95.7157 80.0718 95.6957 79.9891C95.6793 79.9216 95.6796 79.8509 95.6586 79.7838C95.6446 79.7187 95.654 79.6501 95.6299 79.5865C95.6141 79.4933 95.6229 79.3994 95.6201 79.3059C95.6183 79.2683 95.6211 79.231 95.6278 79.1941C95.6481 79.1125 95.7034 79.0513 95.7704 79.0137C95.9375 78.9191 96.0755 78.7922 96.2076 78.6561C96.2206 78.6427 96.2385 78.6361 96.2563 78.6312C96.3127 78.6466 96.3457 78.641 96.3089 78.5721C96.3131 78.5337 96.3369 78.5151 96.3712 78.5066C96.4186 78.4975 96.4623 78.5116 96.5054 78.5285C96.5534 78.5471 96.5976 78.5401 96.6316 78.5017C96.7087 78.4152 96.7952 78.3906 96.9003 78.4497C96.9199 78.4606 96.9455 78.4546 96.9687 78.4567C97.0135 78.4634 97.0548 78.4905 97.1025 78.4821C97.1326 78.4768 97.1631 78.462 97.1337 78.43C97.0762 78.3671 97.1305 78.3312 97.1589 78.2873C97.2955 78.1642 97.4637 78.1075 97.6368 78.0619C97.6676 78.052 97.703 78.0306 97.7303 78.0386C97.9153 78.0946 98.0453 77.9908 98.1781 77.8917C98.2864 77.8477 98.3975 77.8607 98.4805 77.9304C98.5912 78.0232 98.7152 78.0559 98.8494 78.0671C98.9994 78.0798 99.1112 78.1494 99.1914 78.2749C99.2033 78.3031 99.2051 78.3319 99.2005 78.3618C99.1644 78.4761 99.2086 78.583 99.2328 78.6916C99.2426 78.7454 99.2625 78.7982 99.2555 78.8544C99.237 78.9821 99.2492 79.109 99.265 79.2359C99.2457 79.2556 99.2212 79.2581 99.196 79.2581C99.1634 79.2546 99.1448 79.2701 99.1385 79.3017C99.1266 79.3376 99.1028 79.3653 99.0789 79.3935C99.0236 79.4564 98.9924 79.5313 98.9731 79.6115C98.9539 79.7423 98.9335 79.8724 98.8032 79.9462C98.7745 79.9634 98.744 79.9768 98.7104 79.9817C98.6606 79.9796 98.6119 79.9789 98.601 80.0454C98.5884 80.0689 98.5677 80.0823 98.5436 80.0918C98.45 80.1227 98.4052 80.1924 98.3912 80.2862C98.3589 80.3513 98.3453 80.4308 98.2598 80.4529C98.1862 80.436 98.1571 80.4853 98.1427 80.5412C98.121 80.6242 98.0691 80.6674 97.9879 80.6776C97.9525 80.6822 97.8972 80.7265 97.8859 80.6636C97.8754 80.6038 97.9094 80.5528 97.9872 80.5672C97.9087 80.5549 97.8691 80.6055 97.8828 80.6664C97.9101 80.7877 97.86 80.8292 97.7678 80.8295C97.8032 80.8193 97.8614 80.794 97.8341 80.8918C97.7675 80.9737 97.6666 81.0162 97.6 81.0982C97.5643 81.1256 97.5159 81.1467 97.4865 81.1115C97.395 81.0022 97.3239 81.0651 97.2489 81.128C97.0429 81.1182 96.9725 81.2276 97.0426 81.4494C97.0675 81.5222 97.0209 81.5803 97.0026 81.6439C96.9939 81.6696 96.9844 81.6945 96.9763 81.7202C96.9525 81.7909 96.9276 81.8609 96.9193 81.9357C96.9165 81.9537 96.9115 81.9716 96.9073 81.9892C96.8586 82.1967 96.8323 82.2065 96.6449 82.0877C96.6347 82.0788 96.6274 82.068 96.6228 82.0557C96.6684 81.9713 96.5906 82.0103 96.5643 81.9976C96.4806 81.9632 96.4284 81.8879 96.3607 81.8331C96.2837 81.7705 96.2125 81.7269 96.1116 81.7779C96.0752 81.7965 96.03 81.7895 95.9886 81.7814C95.9599 81.7743 95.9305 81.7694 95.9007 81.7765C95.8821 81.7793 95.8639 81.7786 95.8461 81.7733C95.8282 81.7652 95.8159 81.7525 95.8089 81.7343C95.812 81.685 95.7917 81.6439 95.764 81.6052C95.7595 81.5936 95.7574 81.5817 95.757 81.569C95.7343 81.4681 95.6859 81.4962 95.6337 81.5447C95.6229 81.5511 95.6109 81.5556 95.599 81.5588C95.5338 81.5704 95.4673 81.5771 95.4077 81.6101C95.3748 81.639 95.3688 81.6836 95.3457 81.7181C95.2511 81.8162 95.2028 81.7297 95.1481 81.6681C95.1411 81.6203 95.0987 81.6214 95.0661 81.6091C95.0545 81.6038 95.0448 81.5957 95.037 81.5852C95.0553 81.531 95.0374 81.5162 94.9862 81.5387Z" fill="white"/>
<path d="M21.3134 3.11523L19.8995 4.71934L18.5469 4.9662L19.2847 6.01511L21.0675 7.18727L22.1126 7.92761L22.1741 8.35958L21.3134 9.53175L20.7602 10.0254L21.7437 10.7041L22.4816 11.321L21.9282 12.2465L21.4979 13.172L19.6535 13.6038L19.2231 14.4058L19.1618 16.0717L21.0675 16.6888L22.2971 16.9355L22.6044 18.4163L22.2356 19.4651L22.1741 20.3288L21.129 20.9458L20.1453 21.5012L19.7765 22.3032L20.6372 23.4137L20.4527 24.1542" stroke="#ABA8A8" stroke-width="0.598924" stroke-linecap="round" stroke-linejoin="round"/>
<path d="M22.0508 20.4524L23.1573 20.5754L24.5097 20.2668L26.0466 20.4519L28.6287 20.6988L30.4731 21.3157L31.764 21.4391L32.6862 21.5008L33.8544 22.4263L34.5921 22.8581L35.76 21.254L36.8052 19.9584L37.9734 20.0201L38.3421 20.637L38.7726 19.8967L38.9569 19.1563V14.0354L39.1413 13.1099L40.125 12.3696L41.1702 11.3824L43.5678 11.0123L44.736 11.3824L45.5966 12.9865L46.3344 13.912L46.5801 14.344L47.4409 14.2822L47.6868 13.4802L48.1171 14.1588L48.8548 14.0354C48.8548 14.0354 49.9614 13.0482 49.777 12.9865C49.5927 12.9248 48.609 12.3696 48.609 12.3696L47.6253 12.2461L48.1785 11.6292L48.609 10.8889L50.0844 10.2717L50.6991 9.34644L51.6213 9.09961H52.7895L54.1419 9.28472H55.1871L56.0476 9.65483L55.9863 10.5186L56.1093 11.2589L57.1545 11.6292L57.0928 12.1844L56.4165 12.678L55.2486 12.1227L54.3879 12.4313L54.2034 12.9865L55.1871 13.1099C55.1871 13.1099 55.7403 13.3568 55.9247 13.3568C56.1093 13.3568 56.1706 14.0354 56.1706 14.0354L57.5847 14.7758L59.0601 15.7012L58.8758 16.3182L58.8142 16.7501L59.675 16.8734L59.8594 16.1331L60.8429 16.7501L60.5972 17.3054L61.2426 18.3127C61.6732 18.1893 63.5515 18.4356 63.5515 18.4356L64.5933 18.6626H66.1917L67.1139 18.5393L67.8514 19.403L67.9744 20.0817L68.4663 20.5754L69.3885 20.6988L69.8187 21.4391L69.7574 22.1177L68.4663 22.3646L67.4824 22.8581L68.0974 23.4751L69.0195 23.8453L70.126 23.907L70.372 24.4005L71.6631 24.7708L73.0156 24.8325L73.8764 23.907L74.0607 22.4263L73.1385 21.6242L73.0156 21.1306L73.1385 20.0817L73.4458 18.9712L73.5075 18.0457L74.368 17.3054L74.491 15.5778L76.8886 15.331L77.3805 14.6524L77.5648 14.2205C78.5487 14.0971 78.1797 13.0482 78.1797 13.0482L78.5487 12.4313" stroke="#ABA8A8" stroke-width="0.598924" stroke-linecap="round" stroke-linejoin="round"/>
<path d="M92.8124 14.2207L93.2427 15.3929L93.5503 15.8866L94.7181 16.2566L94.4108 17.1204L93.4274 17.3055L93.4887 18.3545L93.9189 19.5266V20.5138L93.5503 21.6861L93.1814 21.3159L92.5665 22.7966V23.5369L91.5213 24.0923L92.0746 24.771L91.3983 26.0049L90.4761 26.6837L89.7999 27.424L90.2305 28.411L90.5991 28.9664V30.2003L89.9846 30.7557L89.7999 31.4961L89.7386 32.113L90.2918 32.6682L91.0297 33.2236L90.5378 34.0256L90.4148 34.3958L89.3083 35.0127L89.0007 36.0616L89.3083 37.9126L89.6769 38.4061L89.4313 39.2699L88.8164 39.6401L88.8777 40.4422L90.3535 40.3805L90.1075 41.1208C90.1075 41.1208 89.9229 41.7378 90.1075 41.7378C90.2918 41.7378 91.1527 41.6145 91.1527 41.6145L92.3822 42.2932L92.5052 42.9101L93.4274 43.959" stroke="#ABA8A8" stroke-width="0.598924" stroke-linecap="round" stroke-linejoin="round"/>
<path d="M88.8583 40.0273L87.339 40.4414L87.2161 39.7627H86.0479L84.2035 40.4414L83.1584 41.12V41.9838L84.1422 42.0455L84.0806 42.6624L84.7568 43.5262L84.5725 44.3282L83.9576 45.6857L83.589 46.4878H81.4987L81.2527 47.5365C81.8059 47.7216 81.2527 48.5237 81.2527 48.5237L80.0846 49.0174L79.1624 49.696L79.1011 50.4364L79.1624 51.0533L78.7321 51.6085H77.9329L78.0559 50.3747L76.9494 49.9429L75.9655 50.5598L74.982 51.0533V52.2256L75.0434 52.9043L74.2442 53.7064L74.0599 54.4467L73.0147 54.3233L72.7687 55.1253L71.9082 55.3722L72.3385 56.0506L72.3998 57.038V58.025L72.8917 57.5932L73.8139 57.9635L74.6747 58.3338L75.597 58.4572C75.9655 58.5187 76.2732 59.1359 76.2732 59.1359L75.9042 59.876L76.0272 61.1718L75.0434 61.912L75.228 62.4675L76.2115 63.393L76.8264 63.8248L77.5026 63.393H78.5478L78.6091 64.3185L78.3631 67.5268L77.564 67.7733L77.6256 68.8222L78.1172 69.5008L77.6256 70.3647L77.2567 71.4137L78.0559 71.8454L78.4248 72.2773L78.3631 73.3262L77.6869 74.1282L77.8099 74.6835L77.9946 75.7324L78.8551 75.9792V76.9047L79.593 77.4599L80.6994 77.7683L81.314 78.1386" stroke="#ABA8A8" stroke-width="0.598924" stroke-linecap="round" stroke-linejoin="round"/>
<path d="M72.2782 83.9385L71.6633 83.013L68.8968 82.3344L67.7903 79.9282L67.4826 78.5706L67.7903 77.8919L66.8681 77.1518L65.2697 76.9664L63.6096 75.7944L62.3188 75.2389L61.6426 74.1284L62.9951 73.3264L63.118 72.0925L62.2572 70.2415L62.0729 69.1311L61.212 69.3776L59.5523 69.1311L59.8596 67.9588L61.3966 67.65L61.7652 66.663L61.5196 65.4291L60.1668 65.5526V64.8121L59.3676 63.9484L58.6914 63.4547L59.0603 62.7146L59.3676 62.2209L59.1217 61.357L59.3063 60.308L60.4128 59.2595L60.7818 58.6424L62.0729 58.5805L63.1794 58.4574V59.2595L64.7165 59.7528L65.8842 59.5678L67.0524 59.2595L66.9294 58.7039L68.3435 58.8273V59.2595L69.6347 59.1361L70.5568 58.5189L70.0649 58.1487L71.1714 58.0252L72.5238 56.668" stroke="#ABA8A8" stroke-width="0.598924" stroke-linecap="round" stroke-linejoin="round"/>
<path d="M60.4237 59.1243L59.5513 57.9649L58.3218 57.7181L57.8299 56.8545L57.7683 55.682L58.5061 55.3736L58.0142 54.263L56.7234 52.2888L55.9239 51.425L56.1085 50.8079V49.574L56.4158 48.9569L57.0307 47.5996L56.4775 46.6124L55.7396 45.8721L55.9855 45.0083L54.6329 43.1575L53.8952 42.2937L53.6494 41.3683L52.8502 40.7513V39.7024V38.8386L52.9117 37.9132L53.7722 36.4942L53.2805 35.4453L53.1575 34.4581L53.8952 33.656L54.8789 33.7177L56.1698 33.4091L55.7396 32.2987L54.5716 32.3604L54.0797 31.8667V30.8795L52.2353 29.8925L51.3746 29.2754L50.6984 30.1392L50.5754 30.7563L49.7762 30.9412L48.3623 29.8308L47.8705 29.3371L47.1328 30.0776L47.5631 30.5711L47.1943 30.9412L45.5959 30.8795H44.4892L42.8293 31.2498L42.3374 31.9284L42.1531 32.8539L41.9072 33.4091L41.0464 33.8411L40.4932 35.1367L39.8168 35.8771L39.0791 35.3835L37.0504 34.9516L36.3127 35.6921L36.3742 36.7408L36.4357 37.8514L36.0668 38.6535V39.7641L35.698 40.4428L34.9601 40.8746L34.4069 41.43L34.4684 42.232L34.4069 42.7255L33.2389 43.4042L31.7633 44.8234L30.9026 45.3169L30.6568 44.4531L29.6731 45.2552L27.4598 44.2062L26.0459 42.7873L24.6319 43.5276L22.7876 44.7617L22.6031 45.4403L20.0825 45.2552L18.2383 44.5148" stroke="#ABA8A8" stroke-width="0.598924" stroke-linecap="round" stroke-linejoin="round"/>
<path d="M17.0547 72.8323L19.0998 72.5872L19.2843 73.821L20.1448 74.1294L21.3129 74.0679L22.2351 74.2529L22.5424 74.9315L23.4646 74.3763L24.6328 74.6847L25.186 75.4867L26.9074 75.6102L27.3993 75.0549C27.6451 74.8081 28.6903 73.204 28.6903 73.204C28.6903 73.204 29.428 72.3403 29.7354 72.4019C30.0427 72.4638 30.8419 72.6487 30.8419 72.6487L30.5961 73.3889L30.1657 73.6976L30.4732 74.1913L32.256 73.0805C32.256 73.0805 33.0552 72.7722 33.1782 72.5872C33.301 72.4019 32.379 70.4275 32.379 70.4275L31.6413 69.8108L32.7478 69.1936L33.547 68.9468L33.67 67.8364L34.1617 67.2811L35.0839 67.2192L35.6373 66.479L35.9446 65.9854L36.8053 65.9238L38.2807 66.7874L38.3422 67.4045L39.1414 67.7745L40.5555 68.6999L41.4776 69.4405L42.0309 70.3659L43.0145 70.7362L43.2604 71.353L44.49 71.168L44.3056 70.6743L46.2114 70.7978L46.2729 71.353L47.0721 71.5998L47.9943 71.2296L48.6705 70.7978L49.5312 70.6128L51.1911 70.8596L51.7444 70.3659H53.7117L55.0027 69.7489L56.1094 69.6873L56.6013 70.1807L56.8469 70.5509L58.138 70.3659L58.015 69.7489L59.5521 69.1321" stroke="#ABA8A8" stroke-width="0.598924" stroke-linecap="round" stroke-linejoin="round"/>
<path d="M30.9023 45.3164L32.6237 45.5632L33.2386 46.3036L34.1606 46.2419L34.2221 46.7354L34.9599 46.0567L35.5133 46.9205L35.5747 48.0311L34.7141 48.9565L34.5296 50.6225L35.3903 51.1777L35.4518 53.0287L35.6977 54.0159V55.5583L37.2347 56.0516L37.0502 57.1005L37.542 57.6561L39.6938 57.3474L40.124 56.8541L40.37 57.2858L40.7387 58.026L39.9396 58.7047L40.37 59.692L39.8166 60.6175L38.8331 60.4322L38.5871 61.2343L38.8946 62.1598L37.8494 63.0237L38.5871 64.0726L37.9724 64.8128L36.9272 65.4299L36.5595 66.0045" stroke="#ABA8A8" stroke-width="0.598924" stroke-linecap="round" stroke-linejoin="round"/>
<path d="M46.1802 13.7852L45.8423 14.5907L45.2275 15.0844L44.9201 16.38L43.998 17.4289L44.5513 18.2927L44.4898 19.3414L45.166 19.8968L45.2275 21.0073L45.9038 22.2413L47.5636 23.105L47.6251 23.9071L48.6703 24.7709L47.9941 25.5113L47.3792 25.8815L46.457 26.1899L46.9489 27.0537L47.1334 27.9175L47.4407 28.7812L47.7481 29.645" stroke="#ABA8A8" stroke-width="0.598924" stroke-linecap="round" stroke-linejoin="round"/>
<path d="M34.5907 22.8574L35.2054 24.2149L35.4514 24.9552L35.2054 26.1274L35.5129 26.6211L34.4062 27.4849L34.898 28.4102L35.2669 29.4591L35.3284 30.3846L35.2669 31.4335L35.1439 32.0504C35.1439 32.0504 34.898 32.5439 34.8367 32.9759C34.7752 33.4077 34.8367 34.6417 34.8367 34.6417L35.7587 35.1352L36.3121 35.6906" stroke="#ABA8A8" stroke-width="0.598924" stroke-linecap="round" stroke-linejoin="round"/>
<path d="M51.8926 29.6448L53.1215 28.6835L53.7228 28.3441L54.3993 27.1371L55.0278 26.6468L55.7147 25.9219L55.2637 24.9873H55.865L56.1714 25.9219L57.0323 25.1759C57.0323 25.1759 57.5562 24.4593 58.0823 23.969L58.6085 23.4786L59.1997 23.1015L60.0742 22.9548V22.234L60.7882 21.7149C60.7882 21.7149 61.0137 21.6682 60.9761 22.4603C60.9385 23.2523 60.5627 22.9883 60.9385 23.2523L61.3144 23.5164L62.3667 23.475L62.8552 22.1963L63.9075 21.7149C63.9075 21.7149 63.87 21.0072 64.6967 21.7149L65.5235 22.4226L66.3154 23.2523L66.7638 23.7427L67.2523 23.7804L68.0981 23.475L68.3441 25.141L68.5901 26.56L68.2211 27.0535L68.7744 27.5472L69.0203 28.4108L67.8522 29.0896C67.6679 29.0896 67.3602 29.5831 67.3602 29.5831L67.6062 30.3235L67.2989 31.4958C67.2989 31.4958 67.4832 32.051 67.176 32.051L66.807 31.8042L66.6227 30.9404L66.2538 32.1744L66.3154 33.3466L65.8848 34.0871L66.3154 34.7658L67.176 35.2593L68.3441 34.9507L69.1433 35.6295L69.3276 36.3082L70.0038 36.5549L71.2949 37.4188L70.8647 37.9123L70.4958 38.4058L71.172 38.7761L71.6022 39.4548L71.7252 40.9355L71.5409 42.2312L70.4958 42.5396L70.0038 43.4034L69.082 44.0822L69.4506 45.1926L70.8031 46.365L71.8482 46.6116L72.7091 47.352L73.4466 48.4626L73.2007 48.9561L73.5083 50.005L75.045 50.1901L76.0289 50.0667L76.2132 50.4987" stroke="#ABA8A8" stroke-width="0.598924" stroke-linecap="round" stroke-linejoin="round"/>
<path d="M56.1719 33.4078L57.217 33.5929C57.217 33.9015 58.0162 33.8398 58.0162 33.8398L58.2622 33.1611H59.7376L60.1066 33.5312L60.0449 34.0249L61.0288 34.0866L61.9509 35.1353L62.6272 35.814L63.4264 36.246H64.6559L65.2708 35.814L65.578 35.1353L66.3159 34.7653" stroke="#ABA8A8" stroke-width="0.598924" stroke-linecap="round" stroke-linejoin="round"/>
<path d="M35.5762 48.031L36.3139 49.0798L37.1131 48.648L37.2361 48.2777L38.3426 47.9076L38.896 46.4886L39.7567 46.0566L41.5394 46.3035L41.2936 47.229L42.646 47.1673L44.1215 46.7353L45.7814 46.8587L46.4576 47.229L48.1175 47.1056L49.2242 47.6608L49.7159 48.1545L50.3923 48.5245H51.7447L53.2202 48.4012L53.2817 48.8948L53.0357 49.3883L53.9579 49.7586L54.9415 49.5735H56.1097" stroke="#ABA8A8" stroke-width="0.598924" stroke-linecap="round" stroke-linejoin="round"/>
<path d="M53.5273 35.6291L52.5436 34.7037L52.0519 34.21L51.4984 34.8271L51.1297 35.6291L50.0845 35.9375L49.6542 36.5545L49.7771 37.0481C48.9778 37.4184 48.2401 37.6033 48.2401 37.6033L47.8099 38.2205L47.8714 38.6523L47.9329 39.0842L47.1951 39.516C46.5187 39.516 46.15 39.9479 46.15 39.9479L46.273 40.6884L45.781 41.984L45.1048 42.2925H43.7524L43.6909 42.9712L43.2604 43.6498L43.9983 43.9584L44.1211 44.3902L42.8302 44.9454L41.8465 45.3774L41.5391 46.3028" stroke="#ABA8A8" stroke-width="0.598924" stroke-linecap="round" stroke-linejoin="round"/>
<path d="M53.5273 9.03788V7.79647L56.1707 6.51855" stroke="#ABA8A8" stroke-width="0.688108" stroke-linecap="round" stroke-linejoin="round"/>
<path d="M31.4256 73.5977V74.7624L31.8739 75.6091L32.2046 76.7062L33.4329 78.4603L32.4293 79.2663L32.8187 80.0723L33.9998 79.4085L34.5194 78.9344L35.3225 78.8871C35.3225 78.8871 36.598 78.5078 36.6453 78.65C36.6925 78.7922 37.1649 80.3567 37.1649 80.3567V81.542L37.4484 82.4464L37.8735 83.3436H39.2908L39.8104 83.9385L39.5742 84.6711H39.0073L38.9128 85.5245H38.3046L37.5901 85.0504L36.8815 85.8089L37.0232 86.6149L35.417 87.3261L34.3305 88.2269H33.1967L32.8187 87.6105L31.9684 88.2269L31.4256 87.2312L30.9047 87.8476L31.2125 88.5113L30.9047 88.9854L29.937 88.5587V87.9424L28.1419 88.6535L27.1498 89.4071H25.1872L24.2209 88.8906L23.0871 88.7958L22.1377 89.4071C22.1377 89.4071 22.3897 89.0351 22.5972 88.6847C22.7282 88.4635 22.8415 88.2509 22.8624 88.1458C22.9165 87.8745 23.0246 87.0604 23.0246 86.4634C23.0246 85.8664 22.9705 84.8896 23.0787 84.184C23.1869 83.4785 23.0246 82.773 23.3163 82.5016C23.6079 82.2302 23.2409 81.4162 23.3163 81.1448C23.3916 80.8734 22.7542 80.1137 22.7002 79.9508C22.6461 79.788 21.6186 79.5167 21.4564 79.5167C21.2941 79.5167 22.9705 78.1599 22.9705 78.1599H24.3225L25.1872 77.6172V75.4857" stroke="#ABA8A8" stroke-width="0.598924" stroke-linecap="round" stroke-linejoin="round"/>
<path d="M33.5265 96.5259L32.8642 94.7221L32.4391 93.6791H31.5887L30.9029 93.8687L30.2188 93.2998L31.1636 93.0154H31.7304L31.8726 92.4464H32.7225L33.2894 91.4982L33.1949 90.6923L33.006 89.8863L33.5265 89.1752H34.187L34.7066 89.6493L35.4153 89.1752V88.7011V87.9425V87.3262" stroke="#ABA8A8" stroke-width="0.598924" stroke-linecap="round" stroke-linejoin="round"/>
<path d="M39.8105 84.2085L40.4596 84.8766H41.0144L41.4583 84.5425L41.769 83.9189H42.2128L42.6345 84.0971L42.7898 84.6985L43.1892 85.5225L43.4112 86.2352L43.5 86.7697L44.4098 87.4601L45.3197 88.1951C45.3197 88.1951 45.2087 88.3064 46.2961 88.6405C47.3835 88.9746 46.2074 88.6628 47.3835 88.9746C48.5597 89.2864 48.0937 88.7741 48.5597 89.2864C49.0258 89.7986 48.826 88.9746 49.0258 89.7986L49.2255 90.6227L49.0485 91.4628L49.2255 91.714" stroke="#ABA8A8" stroke-width="0.598924" stroke-linecap="round" stroke-linejoin="round"/>
<path d="M43.8616 71.2617L44.2443 72.4456L44.5163 73.1245L44.3571 73.5979L43.8616 74.0014L43.4551 74.5106V77.5657H43.8779L43.9857 77.9052V78.471C43.9857 78.471 43.8215 78.4144 44.1034 78.8104L44.3853 79.2065L44.3007 79.6591L44.6953 79.9985L44.949 80.7623L45.2309 81.2432L45.8792 81.6675L46.0201 81.9504L46.3584 82.6576H47.0349L47.6832 82.5445L48.1342 82.0353V81.2998L48.557 81.2715L48.9516 81.1583L49.459 80.7906L49.9664 80.5926L50.6146 79.7439L51.122 79.5459L51.5166 79.8571L51.8549 80.3663L52.5596 80.2814L52.8132 80.0834L54.5045 79.4328H55.0267L55.632 79.7439L56.4776 79.2913L57.0413 79.0084V78.273L57.4641 77.2829L57.9433 76.3494L60.0574 74.2277L60.3674 73.9732L60.903 73.9449L61.6422 74.1287" stroke="#ABA8A8" stroke-width="0.598924" stroke-linecap="round" stroke-linejoin="round"/>
<path d="M42.9961 85.1263L43.5467 84.6379L43.6373 83.9184L44.5166 82.8036L45.1025 82.5156L45.601 82.1366L46.0204 81.9512" stroke="#ABA8A8" stroke-width="0.598924" stroke-linecap="round" stroke-linejoin="round"/>
<path d="M55.6465 91.6178V90.6077L56.2502 89.6832L55.9484 89.0076L55.6465 88.2253L55.9484 87.8164L56.2502 87.3008L55.9484 86.0562L56.8525 85.5229V84.5984L57.6321 83.9188H58.0218L58.8722 84.2072L60.006 83.9188L60.1831 83.2116L60.5375 82.6589L61.6449 82.1093L61.9193 81.5038L62.309 80.5447L62.6279 80.0824V79.229L62.2736 78.3756L62.8051 77.8067L63.0177 76.9609L63.6119 75.7959" stroke="#ABA8A8" stroke-width="0.598924" stroke-linecap="round" stroke-linejoin="round"/>
<path d="M79.1641 51.0527L80.2071 51.711L81.1476 51.8562L81.3647 52.0014C81.3647 52.0014 81.3405 52.1951 81.3647 52.5339L81.3888 52.8728L82.0641 52.9696L82.3776 52.5581C82.3776 52.5581 82.5464 52.2435 82.6911 52.4855L82.8358 52.7276C82.8358 52.7276 82.4258 52.9696 82.8358 53.0422C83.2458 53.1148 82.8358 53.26 83.2458 53.1148L83.6558 52.9696L83.9934 52.4371L84.2828 52.3161L84.6928 52.5339L85.0546 52.8001L85.2716 53.1769L85.8745 53.4779L86.5028 53.4376" stroke="#ABA8A8" stroke-width="0.798566" stroke-miterlimit="10"/>
<path d="M91.0293 33.2239L91.9828 32.2797H92.3353V32.7518H92.848L93.1364 32.4726C93.1364 32.4726 92.9762 32.6335 93.8093 32.6013C94.6424 32.5691 94.2579 32.8264 94.6424 32.5691L95.027 32.3119L96.8214 32.2797L97.9429 30.8326L98.3915 30.318H98.8081L99.2888 29.6105L99.5772 29.0901L100.987 28.8709H101.756L101.468 28.1313L101.532 27.5202L101.372 26.652L101.532 26.041L102.237 26.2339L102.557 26.4269L102.942 26.041L103.23 25.6551L103.551 25.3013L103.294 24.833L103.551 24.5617L103.935 22.9859L104.256 22.0855L104.672 21.0564L104.031 20.3168L103.935 19.8666L104.961 19.0948H105.409L106.08 18.6211" stroke="#ABA8A8" stroke-width="0.798566" stroke-miterlimit="10"/>
<path d="M106.305 19.1934L107.317 19.4493L107.222 20.404L107.317 21.1519V21.5975L108.364 21.4861L110.728 21.9611L111.675 22.8822V24.5228L111.302 24.9833L110.212 25.156L110.355 25.6453L110.986 25.9232C110.986 25.9232 111.13 25.5678 111.531 25.9232L111.933 26.2785L112.191 26.5664L112.564 26.8254H114.313L114.384 27.3589V27.6889" stroke="#ABA8A8" stroke-width="0.798566" stroke-miterlimit="10"/>
<path d="M78.1348 13.9062L78.5493 15.536V16.5925L78.342 17.7583L78.5493 18.0862L79.042 18.6204V19.192L78.8968 19.7985H79.4776L79.9858 19.192L80.3847 20.1628L80.131 21.3651L79.768 22.5673L79.0056 22.968L78.5493 23.806L79.6228 24.4982H81.5468L82.3091 25.3361L82.7447 27.0484L83.5434 27.6875L84.7776 27.8499L85.2496 28.4328V28.9429C85.2496 28.9429 85.3222 28.981 85.7215 29.0894C86.1208 29.1979 85.7941 28.4328 86.1208 29.1979L86.4475 29.9629L86.7742 30.983V31.6024H87.6092L87.9359 32.0031H88.4078L88.8159 31.6752L89.7994 31.4957L89.8934 31.1189" stroke="#ABA8A8" stroke-width="0.798566" stroke-miterlimit="10"/>
<path d="M71.2949 37.4191L72.5804 37.2133L73.1249 36.0839L74.1777 35.9017H75.0126L75.303 35.5374L75.5934 34.7043H76.501L77.3359 34.5173L77.9168 35.1366L78.5495 35.5374L79.164 35.1366C79.164 35.1366 78.6428 34.9181 79.4777 34.8816C80.3127 34.8452 79.7319 34.9545 80.3127 34.8452C80.8935 34.7359 80.4579 35.1366 80.8935 34.7359L81.3291 34.3352V32.4771C81.3291 32.4771 81.2202 32.0764 81.91 32.0035L82.5997 31.9307L83.3257 32.295L84.8141 33.7158L86.0847 34.6748L87.1737 34.7043C87.1737 34.7043 87.319 34.4809 87.7546 34.9181L88.1902 35.3552C88.1902 35.3552 88.0813 35.5738 88.4806 35.6103L88.8799 35.6467L89.0936 35.744" stroke="#ABA8A8" stroke-width="0.798566" stroke-miterlimit="10"/>
<path d="M73.4453 48.4625L74.4689 47.9072L75.009 48.1849L75.249 48.4625L76.2119 48.7172L76.7191 49.1086L76.8991 49.4398L76.9498 49.9433" stroke="#ABA8A8" stroke-width="0.798566" stroke-miterlimit="10"/>
<path d="M57.0312 47.5991L57.9698 47.3384L58.691 47.5991L59.1987 46.9652L59.5519 44.6882L59.9783 43.9591H60.9453C60.9453 43.9591 61.0197 44.1257 61.5032 43.9591C61.9867 43.7924 61.466 43.5311 61.9867 43.7924L62.5074 44.0537V43.5311L63.007 43.1579L63.4373 42.8593L64.3299 42.15L64.7762 41.7768C64.7762 41.7768 64.5785 41.5155 65.6072 41.4409L66.6359 41.3662L67.4169 41.8141L68.6443 42.4113L69.081 44.0825" stroke="#ABA8A8" stroke-width="0.798566" stroke-miterlimit="10"/>
<path d="M40.7402 57.5218L43.1102 55.9669L44.6 56.2659L45.4044 56.6688L45.843 56.5649L46.3281 55.9669L46.775 55.3516L47.5336 55.1895C47.5336 55.1895 47.9667 55.3542 48.0263 55.6605C48.0859 55.9669 48.5924 55.339 48.0859 55.9669L47.5794 56.5948L47.5336 56.8639C47.5336 56.8639 46.9835 56.8938 46.8942 57.3124C46.8048 57.7311 46.6856 57.2825 46.8048 57.7311C46.9239 58.1796 46.2685 58.2095 46.9239 58.1796C47.5794 58.1497 47.1623 58.0599 47.5794 58.1497C47.9966 58.2394 47.639 57.7609 47.9966 58.2394L48.3541 58.7178L49.0394 59.1239H50.4397L51.0356 58.8972H51.7507L52.2869 58.957C52.2869 58.957 52.4955 59.1962 53.002 58.8075C53.5085 58.4188 53.3297 59.0467 53.5085 58.4188L53.6873 57.7908C53.6873 57.7908 53.5383 57.5815 54.0448 57.6413L54.5513 57.7011L54.8493 57.2825C54.8493 57.2825 54.3129 57.0134 55.4153 56.834C56.5177 56.6546 57.0319 56.6688 57.0319 56.6688L57.8312 56.8542" stroke="#ABA8A8" stroke-width="0.798566" stroke-miterlimit="10"/>
<path d="M16.1055 59.7003L16.7204 58.8481L17.1889 57.7314L17.716 57.4375L18.0967 57.9077C18.0967 57.9077 18.2363 58.4073 18.2397 58.5689L18.6824 58.0546C18.6824 58.0546 17.5989 57.8195 18.6824 57.702L19.7658 57.5844L20.5272 57.9665L20.9664 58.1428L21.2007 58.7599L20.9664 59.3477L20.4686 60.0824L20.8785 60.2587L22.0498 60.4644H23.7482L25.3002 60.3175C25.3002 60.3175 25.7395 59.6415 26.0323 60.1999L26.3251 60.7583L27.2036 62.1689L27.8185 61.7574L28.3456 61.4636L28.6677 61.6105C28.6677 61.6105 28.8434 61.8162 29.4876 61.5811C30.1318 61.346 29.6633 61.4048 30.1318 61.346C30.6004 61.2872 30.1904 61.346 30.6004 61.2872L31.0103 61.2285H31.5081L32.0938 61.4048L32.533 60.964V60.1999L33.0893 60.1705L34.7585 60.5525L35.0806 59.8032L34.9342 58.9656C34.9342 58.9656 35.0806 58.5542 35.637 58.7599L36.1933 58.9656L36.6326 58.5248L37.2768 58.0546L37.5436 57.6547" stroke="#ABA8A8" stroke-width="0.798566" stroke-miterlimit="10"/>
<path d="M24.7012 32.29L25.7459 32.8143L26.5468 33.1623H27.3826L27.9397 33.5482H28.7406V34.211H29.0541L29.4023 33.653L30.3425 33.2505C30.3425 33.2505 30.5166 33.2307 31.2131 33.1623L31.9096 33.0939L32.7105 33.2505L33.3373 33.7928L33.9641 34.211L34.4092 34.352L34.9392 34.211" stroke="#ABA8A8" stroke-width="0.798566" stroke-miterlimit="10"/>
<path d="M38.3418 20.6367V21.3014L38.9199 21.4296L39.1115 21.9103V22.5513L38.7266 23.064V23.6409L38.4728 24.1535L38.7266 24.5382L39.4627 24.1535C39.6224 24.41 40.1652 25.4355 40.1652 25.4355L40.6123 25.7239L41.5386 25.115L42.177 25.2432L42.4964 25.7239H42.8795L43.3905 25.4035L43.7737 25.4676V26.3649H44.4443L44.7317 26.1726L45.3703 26.1405L46.4568 26.1895" stroke="#ABA8A8" stroke-width="0.798566" stroke-miterlimit="10"/>
<path d="M22.4824 11.3201H23.5369L24.3572 10.4424L24.701 9.92246H26.6884L27.854 9.09902H28.631L29.0196 9.96577L29.5808 10.2095L30.3579 10.5723L31.3508 10.2095L31.7393 9.74916H32.2573C32.2573 9.74916 32.3005 9.87911 32.7754 9.74916C33.2503 9.61917 32.5164 9.79247 33.2503 9.61917L33.9842 9.44587C33.9842 9.44587 34.0705 9.22875 34.6749 9.09902C35.2793 8.96929 34.5886 9.01264 35.2793 8.96929L35.97 8.92597L37.0493 8.66604L37.8695 7.79953L38.6034 7.84285L39.0985 7.7959L39.5645 7.96293L39.9849 8.01615L40.5029 8.83934L41.0209 9.40256L41.1716 11.3818" stroke="#ABA8A8" stroke-width="0.798566" stroke-miterlimit="10"/>
<path d="M42.1103 5.92578L41.7108 6.30997H41.1116L40.812 6.74429L40.4958 7.17856L40.3127 7.663L39.9965 7.88016L39.8633 8.18081" stroke="#ABA8A8" stroke-width="0.798566" stroke-miterlimit="10"/>
<path d="M101.755 28.8701L101.504 30.0173L101.999 30.3486L102.371 30.8456L102.536 31.6325V32.2537L103.444 32.875C103.444 32.875 103.243 33.1005 103.444 33.6205L103.644 34.1404" stroke="#ABA8A8" stroke-width="0.798566" stroke-miterlimit="10"/>
<path d="M57.9807 15.0254L57.3666 16.0115V16.615L57.6737 17.3316L57.3666 17.9351C57.3666 17.9351 57.6297 17.407 57.3666 18.9157L57.1035 20.4244L57.2538 21.4011L57.7048 22.0084L58.2686 22.2347L58.6068 23.4794" stroke="#ABA8A8" stroke-width="0.598924" stroke-linecap="round" stroke-linejoin="round"/>
<path d="M40.7402 34.5605L41.9969 35.9498L42.4001 36.7928L43.3875 37.8112L43.0492 38.4523L43.1995 38.9804L43.3875 39.3575L43.876 40.2571L43.9987 41.0925V41.96L44.2518 42.2932" stroke="#ABA8A8" stroke-width="0.598924" stroke-linecap="round" stroke-linejoin="round"/>
<path d="M70.5466 7.50684L69.428 8.36045L68.5363 9.22043L68.7751 9.87568L68.2447 10.408L67.5509 10.9404V11.5957L66.3152 12.6194H65.9187H65.5514V13.2747V13.9055L65.021 14.5851L64.7354 15.7727V16.1823L63.6336 16.5918H63.0215V17.3289L63.552 17.8613V18.4346" stroke="#ABA8A8" stroke-width="0.598924" stroke-linecap="round" stroke-linejoin="round"/>
<path d="M63.6506 7.35547L63.3059 8.18128L62.6938 8.60771L63.0202 9.59005L62.6938 10.1639L62.3266 10.6144H61.8369H61.4288L60.9799 11.383L60.0414 11.1877L58.8173 11.1467L58.3684 10.6962L57.8553 9.36922V8.68963L57.3482 9.0385L57.1036 9.36922L56.0469 9.65544" stroke="#ABA8A8" stroke-width="0.598924" stroke-linecap="round" stroke-linejoin="round"/>
<path d="M65.5502 13.2761L64.5708 12.5799L63.6506 12.2114H61.8776L61.6328 11.679C62.1225 10.9828 62.3265 10.6143 62.3265 10.6143" stroke="#ABA8A8" stroke-width="0.598924" stroke-linecap="round" stroke-linejoin="round"/>
<path d="M60.5885 15.6693L61.5185 15.8608L61.6341 16.1001L61.9001 15.8847V15.2624L62.067 15.0256L61.8285 14.377H61.0178H60.3977H59.7539V14.6402V15.0256L60.5885 15.6693Z" stroke="#ABA8A8" stroke-width="0.598924" stroke-linecap="round" stroke-linejoin="round"/>
<path d="M14.4802 0.641602L14.2016 3.11498L13.5554 4.13275L12.9093 4.78116L12.6401 6.24015L12.317 7.50788V8.18077C12.317 8.18077 11.9401 7.7444 12.317 9.0997L12.6939 10.455L12.5324 11.3825L12.1495 11.9448V12.7785C12.1495 12.7785 11.8863 13.0704 12.3709 13.2757L12.8554 13.481L12.7478 14.3761L12.8554 15.0248L13.2791 16.0992V16.6691L14.04 16.9661L14.3092 17.5878L15.7782 18.4356L17.3245 17.4797H18.5478L19.1627 16.0714" stroke="#ABA8A8" stroke-width="0.798566" stroke-miterlimit="10"/>
<path d="M9.32805 20.5203L9.08957 19.9533V19.0251L8.59413 18.4362L8.29688 17.7323V16.7379L9.32805 16.2075H9.6511C9.6511 16.2075 9.55201 15.9423 10.0475 15.8429C10.5429 15.7434 9.71716 15.644 10.5429 15.7434L11.3686 15.8429L12.0781 15.7022L12.8554 15.0254" stroke="#ABA8A8" stroke-width="0.798566" stroke-miterlimit="10"/>
<path d="M4.11914 14.1161L4.99289 13.19L5.55438 13.4812L5.91772 12.958L6.31407 12.7922H6.80951H7.4371L8.46103 12.4608L9.05557 11.8309L9.68312 11.382L10.8722 11.168L11.764 11.382L12.1485 11.9443" stroke="#ABA8A8" stroke-width="0.798566" stroke-miterlimit="10"/>
<path d="M78.5254 65.4434H79.1434L79.34 65.9241L80.3856 65.6838H80.9973L81.5029 65.9241C81.6995 66.1513 82.3737 65.9241 82.3737 65.9241L82.1209 65.4434L82.3737 65.0237L82.8231 64.77H83.104L83.8905 64.5163C83.8905 64.5163 83.7501 63.9525 84.7894 63.8397C85.8287 63.727 84.6209 63.6988 85.8287 63.727L87.0366 63.7552L88.104 63.8679" stroke="#ABA8A8" stroke-width="0.798566" stroke-miterlimit="10"/>
<path d="M63.0059 75.535L64.4215 74.5786L65.606 73.3665L66.2754 72.5489L66.7529 72.2389L66.9776 71.8724V71.1395L67.708 71.2612L68.5787 71.5341L69.7023 71.1395L70.3203 70.632H71.0226L71.3034 70.7657L71.6967 71.2612L72.5223 71.1395L72.9326 70.632V69.8991L72.736 69.138L72.7922 68.2922L72.9326 67.813L73.1012 67.1083L73.8034 66.5163L74.0843 66.2061C74.0843 66.2061 74.0843 65.7845 74.6742 66.0235L75.2641 66.2625L75.7697 66.0235L76.3034 66.2625L77.3427 66.9955L77.5697 67.8789" stroke="#ABA8A8" stroke-width="0.798566" stroke-miterlimit="10"/>
<path d="M36.7877 43.1719C32.9829 43.1719 29.3339 44.6719 26.6434 47.3421C23.9529 50.0123 22.4414 53.6338 22.4414 57.41C22.4414 61.1861 23.9529 64.8075 26.6434 67.4778L35.5535 76.3375C35.7107 76.4948 35.8977 76.6196 36.1037 76.7048C36.3097 76.7899 36.5308 76.8339 36.7539 76.8339C36.9771 76.8339 37.1981 76.7899 37.4041 76.7048C37.6101 76.6196 37.7971 76.4948 37.9543 76.3375L46.9321 67.3938C49.6113 64.7348 51.1164 61.1284 51.1164 57.368C51.1164 53.6076 49.6113 50.0011 46.9321 47.3421C44.2416 44.6719 40.5926 43.1719 36.7877 43.1719ZM36.7189 64.0841C32.6382 64.0841 29.3302 60.7982 29.3302 56.7448C29.3302 52.6915 32.6382 49.4056 36.7189 49.4056C40.7995 49.4056 44.1076 52.6915 44.1076 56.7448C44.1076 60.7982 40.7996 64.0841 36.7189 64.0841Z" fill="#333333"/>
<path d="M41.5581 56.3962C41.5581 59.0521 39.4184 61.2051 36.7789 61.2051C34.1395 61.2051 31.9998 59.0521 31.9998 56.3962C31.9998 53.7404 34.1395 51.5874 36.7789 51.5874C39.4184 51.5874 41.5581 53.7404 41.5581 56.3962Z" fill="#333333"/>
</g>
<defs>
<clipPath id="clip0_1169_4209">
<rect width="129.661" height="100" fill="white"/>
</clipPath>
</defs>
</svg>
