<svg width="76" height="93" viewBox="0 0 76 93" fill="none" xmlns="http://www.w3.org/2000/svg">
<g clip-path="url(#clip0_385_1076)">
<path d="M59.4258 72.0151C54.1415 66.8381 48.6535 62.2248 44.1096 56.8181C38.3231 49.9328 32.9701 42.6218 28.0413 35.0942C23.1038 27.5534 18.916 19.5215 14.4077 11.7002C13.9896 10.9748 13.5902 10.2335 13.2493 9.46956C11.1407 4.74459 11.2217 4.51769 15.7346 2.01778C19.6982 10.9119 23.657 19.7954 27.6278 28.7056C28.0573 29.156 28.768 29.7734 29.3136 30.5128C29.7614 31.1195 29.8575 32.0337 30.3779 32.5305C32.7736 34.8177 32.1748 38.7055 35.3304 40.8273C37.0514 41.9846 37.251 45.1875 38.7898 46.8706C45.2927 53.9832 52.0372 60.875 58.7137 67.8281C58.9785 68.1039 59.4502 68.1812 60.2502 68.5432C57.2544 63.7996 54.5439 59.4005 51.7237 55.0729C49.0644 50.9924 49.2775 50.5117 54.3908 49.9635C61.1175 59.6658 67.8548 69.3832 74.7668 79.3528C73.7962 81.3791 72.3977 82.1985 69.6834 81.05C60.3966 77.1204 51.0052 73.4385 41.6828 69.5912C40.772 69.2153 40.0626 68.3512 39.4657 67.3005C47.0002 65.2495 52.6441 70.5969 59.4258 72.0151Z" fill="#C8C8C8"/>
</g>
<defs>
<clipPath id="clip0_385_1076">
<rect width="22.3282" height="98.1534" fill="white" transform="translate(0 13.1317) rotate(-36.0238)"/>
</clipPath>
</defs>
</svg>
