<svg width="69" height="58" viewBox="0 0 69 58" fill="none" xmlns="http://www.w3.org/2000/svg">
<path d="M14.0667 18.0638C20.7951 20.007 26.7067 21.6929 32.6001 23.4402C33.4502 23.6923 34.3103 24.1258 34.9771 24.6959C35.3532 25.0175 35.6589 25.9723 35.4533 26.327C34.6044 27.792 33.6878 29.2775 32.4993 30.4562C32.0226 30.9291 30.6405 30.9521 29.9087 30.6333C22.703 27.4934 15.1919 25.462 7.44888 24.2587C5.85763 24.0114 4.21084 24.1403 2.60502 23.9593C1.81704 23.8706 0.485781 23.5792 0.411601 23.1879C0.238358 22.2737 0.387161 21.0395 0.913659 20.2937C4.52969 15.1726 9.61749 11.7648 14.9189 8.63657C18.881 6.29882 22.9547 4.12695 26.7618 1.55953C28.876 0.133732 30.1259 1.31112 31.4684 2.38942C31.7585 2.62242 31.5768 4.01411 31.1652 4.44342C29.873 5.79156 28.3676 6.93538 27.0167 8.40568C28.0052 7.89595 28.9534 7.26022 29.9979 6.92594C30.5792 6.73991 31.3212 7.0561 31.9908 7.14593C31.7912 7.79855 31.7937 8.7094 31.3532 9.05402C30.1556 9.99084 28.7705 10.688 26.8078 11.8742C33.1899 12.3619 38.1943 14.8588 43.2109 17.4487C52.6455 22.3193 59.5494 29.4978 63.5707 39.3127C64.3167 41.1335 71.9357 59.5027 66.3677 57.2394C63.1615 55.9362 63.0347 47.259 61.5316 44.1339C57.9559 36.6993 53.8809 29.5153 46.9317 24.6276C44.6186 23.0005 41.9897 21.636 39.3066 20.7577C32.4482 18.5125 25.4527 16.7144 18.1293 17.0596C16.9793 17.1138 15.85 17.6083 14.0667 18.0638Z" fill="#C8C8C8"/>
</svg>
